<svg data-v-1a0fdd4b="" xmlns="http://www.w3.org/2000/svg" width="32.009" height="32.009" viewBox="0 0 32.009 32.009"><path d="M24.749 23.006H10.066a2.5 2.5 0 0 1-2.481-2.19l-2.3-18.388H1.212a1.214 1.214 0 0 1 0-2.428h5.144a1.214 1.214 0 0 1 1.2 1.063l.671 5.367h22.566a1.214 1.214 0 0 1 1.141 1.629l-4.837 13.3a2.508 2.508 0 0 1-2.348 1.647zM8.537 8.86l1.457 11.656a.072.072 0 0 0 .072.063h14.683a.072.072 0 0 0 .068-.048L29.062 8.86zM24.364 32.008a3.786 3.786 0 1 1 3.786-3.786 3.79 3.79 0 0 1-3.786 3.786zm0-5.145a1.358 1.358 0 1 0 1.358 1.358 1.36 1.36 0 0 0-1.358-1.357zM10.217 32.008a3.786 3.786 0 1 1 3.786-3.786 3.79 3.79 0 0 1-3.786 3.786zm0-5.145a1.358 1.358 0 1 0 1.359 1.359 1.36 1.36 0 0 0-1.359-1.358z" fill="#21388b"></path></svg>