<svg data-v-145afd84="" xmlns="http://www.w3.org/2000/svg" width="18" height="24" viewBox="0 0 18.303 24.404"><path d="M18.28 6.256a1.087 1.087 0 0 0-.042-.136c-.008-.026-.013-.053-.024-.078a1.136 1.136 0 0 0-.077-.144c-.01-.017-.017-.035-.028-.052a1.173 1.173 0 0 0-.143-.174L12.63.336a1.135 1.135 0 0 0-.174-.143c-.013-.009-.028-.015-.042-.023a1.138 1.138 0 0 0-.155-.083c-.021-.009-.044-.013-.066-.02a1.085 1.085 0 0 0-.148-.045 1.139 1.139 0 0 0-.226-.023H1.144A1.144 1.144 0 0 0 0 1.143v22.116a1.144 1.144 0 0 0 1.144 1.144h16.015a1.144 1.144 0 0 0 1.144-1.144V6.482a1.148 1.148 0 0 0-.023-.226zm-5.315-2.35 1.432 1.433h-1.432zM2.288 22.116V2.288h8.389v4.194a1.144 1.144 0 0 0 1.144 1.144h4.194v14.49z" style="fill: rgb(33, 56, 139);"></path><path d="M5.04 11.439h4.327a1.144 1.144 0 0 0 0-2.288H5.04a1.144 1.144 0 1 0 0 2.288zM13.694 13.35H5.04a1.144 1.144 0 1 0 0 2.288h8.654a1.144 1.144 0 0 0 0-2.288zM13.694 17.925H5.04a1.144 1.144 0 1 0 0 2.288h8.654a1.144 1.144 0 0 0 0-2.288z" style="fill: rgb(33, 56, 139);"></path></svg>