<svg xmlns="http://www.w3.org/2000/svg" width="21.894" height="23.452" viewBox="0 0 21.894 23.452"><defs><style>.a{fill:red;}</style></defs><g transform="translate(-1238.765 -957.17)"><path class="a" d="M1259.841,960.179h-5.174v-.237l0-.132c0-.046,0-.093,0-.138v-.359a2.145,2.145,0,0,0-2.143-2.143H1246.9a2.146,2.146,0,0,0-2.134,1.954l0,1.055h-5.178a.818.818,0,1,0,0,1.636h1.451l.765,15.382a3.644,3.644,0,0,0,3.6,3.424h8.628a3.645,3.645,0,0,0,3.6-3.424l.764-15.383h1.452a.818.818,0,0,0,0-1.636Zm-13.437-.4a.478.478,0,0,1-.011-.1v-.359a.513.513,0,0,1,.507-.507h5.625a.514.514,0,0,1,.507.507v.359a.493.493,0,0,1-.011.1l-.073.4h-6.459Zm9.587,17.343a2.014,2.014,0,0,1-1.965,1.869H1245.4a2.014,2.014,0,0,1-1.964-1.869l-.761-15.3h14.078Z"/><path class="a" d="M1255.4,972.458a.818.818,0,0,0-.818.818v10.532a.818.818,0,1,0,1.636,0V973.276A.818.818,0,0,0,1255.4,972.458Z" transform="translate(-8.423 -8.142)"/><path class="a" d="M1267.1,972.458a.818.818,0,0,0-.818.818v10.532a.818.818,0,0,0,1.636,0V973.276A.818.818,0,0,0,1267.1,972.458Z" transform="translate(-14.655 -8.142)"/></g></svg>