<svg data-v-145afd84="" xmlns="http://www.w3.org/2000/svg" width="90.864" height="90.86" viewBox="0 0 90.864 90.86"><path d="M45.43 0a45.43 45.43 0 1 0 45.435 45.434A45.432 45.432 0 0 0 45.43 0zm28.742 59.867a7.525 7.525 0 0 1-5.3 5.306c-4.675 1.248-23.436 1.248-23.436 1.248s-18.75 0-23.436-1.248a7.532 7.532 0 0 1-5.306-5.306c-1.248-4.675-1.248-14.437-1.248-14.437s0-9.762 1.248-14.437A7.528 7.528 0 0 1 22 25.687c4.686-1.25 23.436-1.25 23.436-1.25s18.761 0 23.436 1.25a7.522 7.522 0 0 1 5.3 5.306c1.25 4.675 1.25 14.438 1.25 14.438s-.004 9.761-1.25 14.436z" fill="#fff"></path><path d="m39.44 54.428 15.582-9-15.582-9z" fill="#fff"></path></svg>